<svg width="712" height="221" viewBox="0 0 712 221" fill="none" xmlns="http://www.w3.org/2000/svg">
<path d="M189.9 89.2L44.1 13.8C41.1 12.2 37.9 11.4 34.5 11.4C22.8 11.4 13.3 21.1 13.3 33V188.5C13.3 200.4 22.8 210.1 34.5 210.1C38 210.1 41.4 209.2 44.5 207.5L190.3 127.4C197.2 123.6 201.5 116.2 201.4 108.2C201.3 100.1 196.9 92.8 189.9 89.2Z" fill="#DB0B5B"/>
<path d="M149.8 121.4C148.6 120.9 147.5 120.3 146.3 119.8C146.1 119.7 146 119.7 145.9 119.9C145.4 120.8 145 121.6 144.4 122.4C142 125.9 138.6 128.1 134.6 129.5C133.2 130 131.7 130.3 130.2 130.5C126.7 131 123.3 130.7 120.1 129.5C117.5 128.5 115.3 127 113.7 124.8C112.7 123.4 112 122 111.8 120.3C111.6 118.9 112.3 117.6 113.6 117.1C115.4 116.4 117.3 115.8 119.1 115.1C120.5 114.6 121.8 114.1 123.2 113.6C125 112.9 126.7 112.3 128.4 111.5C130.2 110.7 132 109.9 133.7 109C135.5 108 137.2 106.8 138.6 105.3C140.2 103.5 141 101.3 140.9 98.9C140.8 97.1 140.3 95.3 139.6 93.7C138.8 91.9 137.6 90.3 136.1 89C134 87.2 131.5 86 128.7 85.4C124.4 84.4 120.1 84.7 115.8 85.7C113.6 86.2 111.6 86.9 109.5 87.8C107 88.9 104.7 90.3 102.5 91.9C99.3 94.3 96.7 97.2 94.8 100.7C94.5 99.9 94.1 99.1 93.7 98.3C92.3 95.7 90.6 93.4 88.4 91.4C85.8 89.1 82.7 87.4 79.3 86.5C76.8 85.8 74.2 85.5 71.6 85.6C69.1 85.7 66.7 86 64.3 86.7C61.4 87.6 58.8 88.8 56.6 90.9C56.3 91.2 55.5 91.7 54.8 91.5C53.9 91.2 54 89.9 54 89.4C54 81.9 54 74.5 54 67C54 66.4 54 65.7 53.8 65.1C53.5 63.7 52.8 62.7 51.4 62.3C50.3 61.9 49.2 62 48 62.2C46 62.5 44 62.9 42 63.3C38.1 64 34.2 64.7 30.3 65.4C30.1 65.4 30 65.5 30 65.8C30 67 30 68.2 30 69.4C30 69.7 30.1 69.7 30.4 69.7C31.5 69.6 32.7 69.6 33.8 69.8C35.6 70.2 36.8 71.2 37.4 73C37.7 74.1 37.8 75.2 37.8 76.3C37.8 86.6 37.8 96.8 37.8 107.1C37.8 117.7 37.8 128.3 37.8 138.9C37.8 139.1 37.8 139.3 37.8 139.5C37.9 141.1 39.1 142.1 40.7 141.9C41.5 141.8 42.1 141.4 42.6 140.9C43.5 140.1 44.3 139.2 45.2 138.4C46 137.6 46.8 136.8 47.9 136.2C48.7 135.8 49.5 135.6 50.4 135.8C51.5 136 52.4 136.3 53.4 136.8C55.2 137.6 56.9 138.5 58.6 139.3C61.8 140.8 65.1 141.8 68.7 142C71.4 142.2 74.1 142 76.8 141.3C80.8 140.3 84.3 138.5 87.5 135.8C90.6 133.2 92.8 130 94.4 126.3C95.1 127.9 95.9 129.4 96.8 130.7C99.3 134.4 102.5 137.2 106.5 139.2C109.8 140.8 113.2 141.6 116.8 141.9C120.2 142.1 123.5 141.8 126.8 141.1C129.1 140.6 131.3 139.9 133.4 138.9C136.4 137.6 139.3 135.8 141.8 133.7C144.4 131.4 146.7 128.9 148.3 125.8C148.9 124.6 149.4 123.4 149.7 122.1C149.9 121.6 150 121.5 149.8 121.4Z" fill="white"/>
<path d="M120.4 109.7C121.9 109.1 123.3 108.3 124.6 107.3C126.2 106 127 104.3 126.7 102.2C126.5 100.9 126.2 99.6 125.7 98.4C125.1 96.7 124.2 95.2 123 93.9C121.5 92.3 119.8 91.2 117.6 91C116 90.8 114.4 91.1 113 91.7C111.5 92.3 110.2 93.2 109.2 94.4C107.8 96.1 107.1 98.1 106.8 100.3C106.5 103.2 106.7 105.6 107.3 107.9C107.6 109.1 108.1 110.4 108.5 111.1C108.9 111.9 109.5 112.6 110.4 112.8C111.3 113 112.3 112.8 113.3 112.5C115.6 111.8 118 110.7 120.4 109.7Z" fill="#DB0B5B"/>
<path d="M77.9 103C76.8 100.8 75.4 98.8 73.4 97.2C70.5 94.9 67.1 94.2 63.4 95C60.2 95.7 57.9 97.5 56.5 100.2C55.1 102.8 54.5 105.5 54.4 108.4C54.3 110.3 54.2 115.8 54.3 118.2C54.4 120 54.4 121.8 54.8 123.6C55.4 126.3 56.6 128.9 58.7 130.9C62.1 134.2 66.3 135.7 71.2 135C73.3 134.7 75.1 133.7 76.5 132.3C78 130.7 79 128.8 79.6 126.8C80.6 123.6 80.9 120.4 80.9 117.1C80.9 115.1 80.7 113.2 80.4 111.2C79.9 108.4 79.2 105.6 77.9 103Z" fill="#DB0B5B"/>
<path d="M503.2 72.6C510.2 72.6 515.9 66.8 515.9 59.9C515.9 52.7 510.3 46.9 503.1 46.9C495.8 46.9 490.1 52.4 490.1 59.9C490.2 67.3 496.2 72.6 503.2 72.6Z" fill="white"/>
<path d="M617 86.9C617 85.2 617 83.5 617 81.7C617 81.5 616.9 81.4 616.7 81.4C616.4 81.4 616.2 81.4 615.9 81.4C605.4 81.4 594.8 81.4 584.3 81.4C583.9 81.4 583.8 81.5 583.8 81.9C583.8 83.5 583.8 85.1 583.8 86.8C583.8 87.1 583.9 87.2 584.2 87.3C585.2 87.5 586.1 87.8 587.1 88.1C588.4 88.5 589.6 89.1 590.7 90C592.3 91.3 593 93 593.3 94.9C593.6 97.1 593.4 99.3 593 101.4C592.3 105.4 591.1 109.4 589.7 113.2C587.9 118.3 586 123.3 584.1 128.3C583.4 130.1 582.7 132 581.9 133.8C581.5 134.8 581.1 135.8 580.4 136.4C579.7 137 578.5 137 577.9 136.5C577.3 136 576.9 135.3 576.6 134.7C575.8 133.1 575.1 131.5 574.5 129.8C570.8 120 567.1 110.3 563.3 100.5C562.5 98.5 561.8 96.5 561.5 94.3C561.2 91.9 561.9 90.1 564 88.9C565.3 88.1 566.7 87.6 568.1 87.2C568.4 87.1 568.6 87 568.6 86.6C568.6 85 568.6 83.4 568.6 81.8C568.6 81.4 568.5 81.3 568.1 81.3C561.4 81.3 534.5 81.3 527.8 81.3C527.6 81.3 527.3 81.3 527.3 81.6C527.3 83.3 527.3 85 527.3 86.7C527.3 86.9 527.4 87 527.6 87.1C528.2 87.3 528.9 87.6 529.5 87.8C532.8 89.1 535.4 91.2 537.3 94.2C538.7 96.3 539.7 98.6 540.6 100.9C547.6 119 554.6 137.2 561.5 155.3C561.6 155.6 561.8 155.7 562.1 155.7C567.9 155.7 573.7 155.7 579.5 155.7C579.9 155.7 580 155.6 580.1 155.3C586.5 138.7 592.9 122.2 599.3 105.6C600.6 102.4 601.7 99.1 603.3 96C605 92.7 607.5 90.2 611 88.7C612.8 88 614.6 87.4 616.4 87C616.9 87.2 617 87.2 617 86.9Z" fill="white"/>
<path d="M431.3 136.8C431.1 136.6 431 136.6 430.7 136.8C429.8 137.7 428.8 138.7 427.8 139.6C423.3 143.3 418 144.9 412.2 145.1C410.1 145.2 408.1 145 406.1 144.7C401.4 144 397 142.4 393.1 139.5C390.1 137.3 387.8 134.4 386.5 130.8C385.8 128.6 385.4 126.4 385.7 124.1C386 122.1 387.4 120.8 389.3 120.6C392 120.4 394.6 120.3 397.3 120.1C399.3 120 401.3 119.9 403.2 119.7C405.8 119.5 408.3 119.3 410.9 119C413.6 118.7 416.3 118.3 418.9 117.7C421.7 117.1 424.4 116.2 426.8 114.7C429.6 112.9 431.5 110.4 432.3 107.2C432.9 104.8 432.9 102.3 432.6 99.8C432.2 97.1 431.3 94.6 429.8 92.3C427.7 89 424.9 86.6 421.5 84.7C416.2 81.7 410.5 80.4 404.4 80.2C401.4 80.1 398.3 80.2 395.3 80.6C391.6 81.1 388 82 384.5 83.3C378.3 85.7 372.8 89.3 368.5 94.5C366.1 97.4 364.2 100.5 362.9 104C361 108.8 360.2 113.9 360.2 117.6C360.2 123.4 360.8 127.7 362.1 131.8C363.9 137.6 367.1 142.5 371.6 146.7C375.3 150.1 379.5 152.5 384.2 154.2C388.5 155.8 393 156.7 397.6 157C400.8 157.2 404 157.1 407.2 156.7C411.7 156.1 416.1 154.9 420.2 153C424.5 151 428.5 148.5 431.8 145.1C433.1 143.8 434.2 142.4 435.1 140.7C435.2 140.5 435.3 140.4 435.1 140.2C433.9 139.1 432.6 138 431.3 136.8ZM384.4 106.2C384.4 103 385.1 99.7 386.7 96.1C387.9 93.3 389.6 91 392.1 89.2C393.9 87.9 396 87.3 398.2 87.1C400.4 86.9 402.5 87.1 404.6 87.9C407.4 89.1 409.3 91.2 410.6 93.9C411.6 96.1 412.2 98.4 412.4 100.9C412.5 102.7 412.5 104.5 412.2 106.3C411.7 109.2 410.1 111.1 407.4 112.2C405.3 113.1 403.2 113.5 401 113.7C397.5 114.1 394 114.5 390.5 114.7C389.2 114.8 387.7 114.7 386.6 114C385.5 113.3 385 112.2 384.8 111C384.6 109.8 384.4 108 384.4 106.2Z" fill="white"/>
<path d="M693.5 129.3C691.9 128.6 690.3 127.8 688.8 127.1C688.5 127 688.4 127 688.3 127.3C687.7 128.5 687.1 129.7 686.3 130.8C683 135.6 678.4 138.6 672.9 140.5C670.9 141.2 668.9 141.6 666.9 141.8C662.2 142.4 657.5 142.1 653 140.4C649.5 139.1 646.4 137 644.2 133.9C642.9 132 641.9 130 641.6 127.7C641.3 125.7 642.3 124 644.1 123.4C646.6 122.5 649.1 121.6 651.6 120.7C653.5 120 655.4 119.4 657.2 118.7C659.6 117.8 662 116.9 664.4 115.8C666.9 114.7 669.3 113.6 671.7 112.3C674.2 111 676.5 109.3 678.4 107.2C680.6 104.7 681.7 101.8 681.6 98.4C681.5 95.9 680.8 93.5 679.8 91.2C678.7 88.7 677 86.6 675 84.8C672.1 82.3 668.6 80.7 664.9 79.8C659 78.4 653.1 78.8 647.3 80.2C644.3 80.9 641.5 81.9 638.7 83.1C635.3 84.6 632.1 86.5 629.1 88.7C623.8 92.8 619.6 97.8 616.9 103.9C615.4 107.3 614.5 110.9 614.2 114.6C613.7 119.8 614.4 124.9 615.4 128.4C617 134 618.8 137.9 621.2 141.5C624.6 146.5 629 150.4 634.5 153.1C639 155.3 643.7 156.4 648.7 156.8C653.3 157.1 657.9 156.7 662.4 155.7C665.5 155 668.6 154 671.5 152.7C675.7 150.9 679.5 148.5 683 145.5C686.6 142.4 689.7 138.9 691.9 134.7C692.8 133.1 693.5 131.4 693.9 129.6C693.7 129.6 693.7 129.4 693.5 129.3ZM639.5 117.7C638.2 117.3 637.4 116.4 636.9 115.3C636.4 114.3 635.7 112.6 635.2 110.9C634.3 107.8 634.1 104.5 634.5 100.5C634.9 97.5 635.8 94.8 637.7 92.4C639.1 90.7 640.9 89.5 643 88.6C645 87.8 647.1 87.4 649.4 87.6C652.4 88 654.8 89.4 656.8 91.6C658.4 93.4 659.6 95.5 660.5 97.8C661.1 99.5 661.7 101.2 661.9 103C662.2 105.9 661.2 108.2 659 110C657.3 111.4 655.3 112.4 653.3 113.3C650 114.6 646.8 116.1 643.5 117.2C642.1 117.8 640.7 118 639.5 117.7Z" fill="white"/>
<path d="M473.7 147.4C473.3 147.5 472.9 147.6 472.4 147.7C470.2 148.2 468.4 147.2 467.5 145.2C466.8 143.6 466.6 141.8 466.6 140.1C466.6 125.9 466.6 69 466.6 54.7C466.6 53.8 466.6 52.9 466.4 52.1C466.1 50.4 465.2 49.1 463.6 48.4C462.1 47.8 460.6 47.7 459 48C456.7 48.4 440.2 51.3 434.2 52.4C433.8 52.5 433.7 52.6 433.7 53C433.7 54.6 433.7 56.2 433.7 57.7C433.7 58.3 433.7 58.3 434.2 58.2C435.7 58.1 437.3 58.1 438.8 58.4C441.3 58.9 443 60.3 443.7 62.8C444.1 64.3 444.2 65.9 444.2 67.4C444.2 91.6 444.2 115.8 444.2 139.9C444.2 142.2 444.4 144.5 445.1 146.7C446.5 151.2 449.4 154.4 454 156C456 156.7 458 157 460.1 157C462.9 157.1 465.6 156.7 468.2 155.6C470.3 154.7 472 153.5 473.3 151.5C473.5 151.1 473.8 150.8 473.8 150.4C473.9 149.4 473.8 148.4 473.8 147.4C473.9 147.4 473.9 147.3 473.7 147.4Z" fill="white"/>
<path d="M348 97.6C346.1 94 343.8 90.9 340.7 88.2C337.1 85 332.9 82.8 328.3 81.4C324.9 80.4 321.4 80 317.8 80.2C314.4 80.3 311.1 80.8 307.8 81.7C303.9 82.9 300.3 84.6 297.2 87.4C296.8 87.7 295.7 88.6 294.7 88.2C293.4 87.7 293.6 85.9 293.6 85.3C293.6 75.1 293.6 64.8 293.6 54.6C293.6 53.7 293.5 52.9 293.4 52C293 50.1 292 48.8 290.1 48.2C288.6 47.7 287 47.8 285.5 48C282.7 48.5 280 49 277.2 49.5C271.8 50.5 266.5 51.4 261.1 52.4C260.8 52.5 260.7 52.6 260.7 52.9C260.7 54.5 260.7 56.2 260.7 57.8C260.7 58.2 260.8 58.3 261.2 58.2C262.7 58.1 264.3 58.1 265.8 58.4C268.3 58.9 270 60.3 270.7 62.7C271.2 64.2 271.3 65.7 271.3 67.3C271.3 81.4 271.3 95.4 271.3 109.5C271.3 124 271.3 138.5 271.3 153C271.3 153.3 271.3 153.5 271.3 153.8C271.4 156 273.1 157.4 275.3 157C276.3 156.8 277.2 156.3 278 155.6C279.2 154.5 280.4 153.3 281.5 152.1C282.6 150.9 283.7 149.8 285.2 149.1C286.3 148.5 287.4 148.3 288.6 148.5C290.1 148.7 291.4 149.2 292.7 149.8C295.1 150.9 297.5 152.1 299.9 153.2C304.3 155.2 308.9 156.6 313.7 156.9C317.5 157.2 321.2 156.9 324.8 156C330.2 154.7 335.1 152.2 339.4 148.5C343.9 144.6 347.2 139.9 349.4 134.3C351.2 129.9 352.1 125.3 352.4 120.5C352.7 116.3 352.4 112.1 351.6 108C350.9 104.5 349.8 100.9 348 97.6ZM328.4 136.7C327.5 139.5 326.2 142 324.1 144.2C322.1 146.2 319.7 147.6 316.8 147.9C310.1 148.7 304.3 146.8 299.7 142.2C296.8 139.4 295.2 135.9 294.4 132.2C293.8 129.8 293.8 127.3 293.7 124.8C293.5 121.5 293.7 113.9 293.8 111.4C294 107.5 294.8 103.7 296.7 100.2C298.7 96.5 301.8 94 306.2 93.1C311.3 92.1 315.9 93 320 96.2C322.8 98.4 324.7 101.1 326.2 104.2C327.9 107.8 329 111.6 329.6 115.5C330 118.2 330.2 120.9 330.2 123.6C330.1 127.9 329.8 132.4 328.4 136.7Z" fill="white"/>
<path d="M526.5 150.7C526.5 150.3 526.4 150.2 526 150.2C524.6 150.1 523.3 149.9 521.9 149.5C519.4 148.8 517.7 147.2 516.9 144.6C516.3 142.7 516.2 140.6 516.2 138.6C516.2 130.2 516.2 121.7 516.2 113.3C516.2 104.5 516.2 95.7 516.2 86.9C516.2 86.2 516.2 85.5 516.1 84.8C515.9 83.2 515.2 81.9 513.8 81C512.9 80.4 511.9 80.2 510.8 80.1C509.2 80 507.7 80.3 506.2 80.6C502.5 81.2 498.8 81.9 495.1 82.5C491.3 83.2 487.4 83.8 483.6 84.5C483.3 84.6 483.2 84.7 483.2 85C483.2 86.6 483.2 88.2 483.2 89.8C483.2 90.5 483.2 90.5 483.9 90.4C485.3 90.3 486.7 90.3 488.1 90.5C490.8 91 492.5 92.4 493.3 95.1C493.7 96.5 493.8 97.9 493.8 99.3C493.8 112.5 493.8 125.6 493.8 138.8C493.8 140.5 493.7 142.1 493.3 143.7C492.7 146.4 491.2 148.3 488.5 149.2C487 149.7 485.5 150 483.9 150.1C483.2 150.2 483.1 150.1 483.1 150.9C483.1 150.9 483.1 155.3 483.1 155.5C483.1 155.8 483.2 155.9 483.5 155.9C485.5 155.9 513.7 155.9 525.7 155.9C526.1 155.9 526.2 155.8 526.2 155.4C526.5 155.4 526.5 150.8 526.5 150.7Z" fill="white"/>
</svg>
